# xmcd CD database file
#
# Track frame offsets:
#	150
#	15540
#	28918
#	45635
#	59621
#	81402
#	92738
#	108825
#	125045
#	144384
#	153092
#	167614
#
# Disc length: 2370 seconds
#
# Revision: 1
# Processed by: cddbd v1.5.2PL0 Copyright (c) Steve Scherf et al.
# Submitted via: CDex 1.51
#
DISCID=9909400c
DTITLE=Frank Ulrich und Kinderchor - Jetzt mal ehrlich - Hits für Keds and Teens
DYEAR=2008
DGENRE=Christliche Musik
TTITLE0=Doppeldecker fliegen
TTITLE1=Gott sucht Agenten
TTITLE2=H2 O
TTITLE3=Jetzt mal ehrlich
TTITLE4=Ganz oder gar nicht
TTITLE5=Der Goliat
TTITLE6=Wenn Elia betet
TTITLE7=Daniel
TTITLE8=Gott spricht zu uns
TTITLE9=Dankeslied
TTITLE10=Jesus ist stärker
TTITLE11=Geh mit Jesus
EXTD=YEAR: 2008
EXTT0=
EXTT1=
EXTT2=
EXTT3=
EXTT4=
EXTT5=
EXTT6=
EXTT7=
EXTT8=
EXTT9=
EXTT10=
EXTT11=
PLAYORDER=
